<svg xmlns="http://www.w3.org/2000/svg" width="20" height="20" viewBox="0 0 20 20"><g transform="translate(0)"><g transform="translate(0)"><path d="M26.576,35.061c0-.943-.642-.943-.642-.943H23.294v2.024h2.477C26.2,36.142,26.576,36.005,26.576,35.061Z" transform="translate(-18.528 -27.137)" fill="#7a92c8"/><path d="M25.935,50.846H23.294v2.425h2.519c.379-.011,1.078-.13,1.078-1.179C26.891,50.833,25.935,50.846,25.935,50.846Z" transform="translate(-18.528 -40.443)" fill="#7a92c8"/><path d="M63.036,44.011a1.623,1.623,0,0,0-1.6,1.4h2.98A1.35,1.35,0,0,0,63.036,44.011Z" transform="translate(-48.868 -35.006)" fill="#7a92c8"/><path d="M10,0A10,10,0,1,0,20,10,10,10,0,0,0,10,0Zm2.18,5.9h3.743V7.02H12.18Zm-1.892,5.859c0,2.769-2.882,2.678-2.882,2.678H2.686V5.368H7.407A2.318,2.318,0,0,1,9.974,7.783,1.575,1.575,0,0,1,8.589,9.51C10.414,9.51,10.288,11.762,10.288,11.762Zm3.9,1.431c1.508,0,1.455-.976,1.455-.976h1.6c0,2.59-3.1,2.413-3.1,2.413a3.218,3.218,0,0,1-3.486-3.468,3.411,3.411,0,0,1,3.485-3.485c3.672,0,3.158,3.938,3.158,3.938h-4.7A1.476,1.476,0,0,0,14.185,13.193Z" transform="translate(0)" fill="#7a92c8"/></g></g></svg>