<svg xmlns="http://www.w3.org/2000/svg" width="20" height="20" viewBox="0 0 20 20"><g transform="translate(0)"><g transform="translate(0)"><path d="M24.719,24.929a40.161,40.161,0,0,0-2.288-3.562,6.269,6.269,0,0,0-3.425,4.315h.061A23.667,23.667,0,0,0,24.719,24.929Z" transform="translate(-15.117 -16.995)" fill="#7a92c8"/><path d="M47.512,19.952a6.244,6.244,0,0,0-5.53-1.39,33.7,33.7,0,0,1,2.3,3.607A7.138,7.138,0,0,0,47.512,19.952Z" transform="translate(-33.392 -14.635)" fill="#7a92c8"/><path d="M56.153,33.113q.064.15.125.3a11.729,11.729,0,0,1,1.425-.083,15.552,15.552,0,0,1,2.893.279A6.209,6.209,0,0,0,59.215,29.8a8.515,8.515,0,0,1-3.463,2.436C55.893,32.525,56.027,32.818,56.153,33.113Z" transform="translate(-44.345 -23.704)" fill="#7a92c8"/><path d="M24.995,44.893c.069-.022.138-.042.208-.063-.149-.334-.309-.669-.478-1a23.4,23.4,0,0,1-6.245.888h-.164c0,.052,0,.1,0,.154a6.215,6.215,0,0,0,1.574,4.138A10,10,0,0,1,24.995,44.893Z" transform="translate(-14.566 -34.864)" fill="#7a92c8"/><path d="M10,0A10,10,0,1,0,20,10,10,10,0,0,0,10,0Zm0,17.392A7.392,7.392,0,1,1,17.4,10,7.406,7.406,0,0,1,10,17.392Z" transform="translate(0)" fill="#7a92c8"/><path d="M60.327,52.264a27.272,27.272,0,0,1,1.2,4.385,6.252,6.252,0,0,0,2.627-4.121,9.3,9.3,0,0,0-2.566-.358A8.3,8.3,0,0,0,60.327,52.264Z" transform="translate(-47.984 -41.496)" fill="#7a92c8"/><path d="M35.134,54.133a8.634,8.634,0,0,0-4.9,3.877,6.251,6.251,0,0,0,6.23.815,26.124,26.124,0,0,0-1.323-4.694Z" transform="translate(-24.048 -43.056)" fill="#7a92c8"/></g></g></svg>