<svg xmlns="http://www.w3.org/2000/svg" width="48.783" height="60" viewBox="0 0 48.783 60"><g transform="translate(-435 -1419)"><path d="M58.847,187.063H99.493a1.733,1.733,0,0,1,1.734,1.746v9.508H95.7a2.283,2.283,0,0,0-2.247,2.264v3.945A2.283,2.283,0,0,0,95.7,206.79h5.522v8.538a1.733,1.733,0,0,1-1.734,1.746H58.847a1.733,1.733,0,0,1-1.734-1.746V188.874A1.748,1.748,0,0,1,58.847,187.063Z" transform="translate(382.156 1261.926)" fill="#1f65ff"/><g transform="translate(435 1419)"><path d="M79.452,11.826h0a.227.227,0,0,0-.063-.129c-.063-.129-.125-.193-.188-.322a.8.8,0,0,0-.376-.258l-7.65-3.863h0L56.941.107a1.193,1.193,0,0,0-.815-.064,1.386,1.386,0,0,0-.627.58l-9.531,19.9H33.553a2.849,2.849,0,0,0-2.822,2.9V55.033a2.849,2.849,0,0,0,2.822,2.9H73.245a2.849,2.849,0,0,0,2.822-2.9V47.628h1.191a1.139,1.139,0,0,0,1.129-1.159V38.034a1.139,1.139,0,0,0-1.129-1.159H76.066V28.568a2.849,2.849,0,0,0-2.822-2.9h-.063L79.39,12.663a.949.949,0,0,0,.125-.451A.837.837,0,0,0,79.452,11.826ZM74.31,18.2a7.729,7.729,0,0,1-2.884-8.307l5.518,2.769ZM62.522,5.451a7.3,7.3,0,0,1-5.957,3.091,8.227,8.227,0,0,1-2.195-.322L57,2.683ZM33.553,22.837H44.9L43.523,25.67h-9.97a2.08,2.08,0,0,0-.627.064V23.417A.625.625,0,0,1,33.553,22.837ZM76.192,39.193v6.182H69.608a1.139,1.139,0,0,1-1.129-1.159V40.352a1.139,1.139,0,0,1,1.129-1.159h6.584Zm-2.32-10.625v8.307H69.545a3.391,3.391,0,0,0-3.323,3.413v3.928a3.391,3.391,0,0,0,3.323,3.413h4.327v7.405a.637.637,0,0,1-.627.644H33.553a.637.637,0,0,1-.627-.644V28.568a.637.637,0,0,1,.627-.644H73.245A.637.637,0,0,1,73.872,28.568ZM52.05,25.67a5.593,5.593,0,0,1,5.016-3.091,5.729,5.729,0,0,1,2.508.58,5.636,5.636,0,0,1,2.508,2.511Zm12.415,0a7.8,7.8,0,0,0-7.336-5.345A7.737,7.737,0,0,0,50.044,24.9a4,4,0,0,0-.314.773H46.094L53.43,10.216a8.821,8.821,0,0,0,3.2.58,9.475,9.475,0,0,0,7.963-4.379l4.891,2.447a10.1,10.1,0,0,0,3.95,11.4L70.862,25.67Z" transform="translate(-30.731 0)" fill="#231f20"/><path d="M217.7,87.823a3.236,3.236,0,0,0-4.269,1.488,3.18,3.18,0,0,0,1.488,4.269,3.525,3.525,0,0,0,1.423.323,3.142,3.142,0,0,0,2.846-1.811A3.274,3.274,0,0,0,217.7,87.823Zm-.647,3.234a.868.868,0,0,1-1.552-.776.84.84,0,0,1,.776-.517.82.82,0,0,1,.388.065A.889.889,0,0,1,217.056,91.057Z" transform="translate(-184.648 -73.428)" fill="#231f20"/></g></g></svg>