<svg xmlns="http://www.w3.org/2000/svg" width="101.189" height="28.273" viewBox="0 0 101.189 28.273"><g transform="translate(-12040.948 115)"><path d="M17.168,28.274H2.223a2,2,0,0,1-2-2V0H19.167V26.273A2,2,0,0,1,17.168,28.274ZM8.987,5.982A7.385,7.385,0,0,0,5.039,7.051a7.075,7.075,0,0,0-2.674,3.064,10.735,10.735,0,0,0-.946,4.621v.879a10.457,10.457,0,0,0,.965,4.534A7.085,7.085,0,0,0,5.07,23.182a7.425,7.425,0,0,0,3.943,1.062,7.377,7.377,0,0,0,3.961-1.075,7.016,7.016,0,0,0,2.655-3.051,10.783,10.783,0,0,0,.928-4.6v-.793a10.706,10.706,0,0,0-.946-4.609,7.075,7.075,0,0,0-2.674-3.064A7.386,7.386,0,0,0,8.987,5.982Zm.025,15.259a3.266,3.266,0,0,1-2.881-1.5,7.6,7.6,0,0,1-1-4.224v-.867a7.427,7.427,0,0,1,1.013-4.2A3.277,3.277,0,0,1,8.987,9.01a3.275,3.275,0,0,1,2.857,1.453,7.511,7.511,0,0,1,1,4.248v.867a7.558,7.558,0,0,1-1,4.217A3.235,3.235,0,0,1,9.013,21.241Z" transform="translate(12057 -115)" fill="#fff"/><path d="M-46.389-6.262V0h-3.662V-17.773h6.934a8.022,8.022,0,0,1,3.522.732,5.4,5.4,0,0,1,2.338,2.081,5.8,5.8,0,0,1,.818,3.07,5.1,5.1,0,0,1-1.788,4.12,7.448,7.448,0,0,1-4.95,1.508Zm0-2.966h3.271A3.217,3.217,0,0,0-40.9-9.912a2.486,2.486,0,0,0,.763-1.953,2.932,2.932,0,0,0-.769-2.112,2.873,2.873,0,0,0-2.124-.83h-3.357ZM2.4-5.92A6.289,6.289,0,0,1,.285-1.4,7.438,7.438,0,0,1-4.75.244a6.688,6.688,0,0,1-5.377-2.3,9.435,9.435,0,0,1-1.959-6.317V-9.46a10.654,10.654,0,0,1,.9-4.517,6.769,6.769,0,0,1,2.582-3,7.232,7.232,0,0,1,3.9-1.044A7.246,7.246,0,0,1,.255-16.37a6.759,6.759,0,0,1,2.173,4.626H-1.234a3.712,3.712,0,0,0-.958-2.5A3.548,3.548,0,0,0-4.7-15.015,3.112,3.112,0,0,0-7.442-13.7a7.354,7.354,0,0,0-.934,4.071v1.343A7.871,7.871,0,0,0-7.5-4.077,3.054,3.054,0,0,0-4.75-2.747a3.615,3.615,0,0,0,2.533-.775,3.5,3.5,0,0,0,.958-2.4Zm8.9-1.208L9.4-5.078V0H5.733V-17.773H9.4v8.057l1.611-2.209,4.529-5.847h4.5l-6.311,7.9L20.223,0H15.865ZM33.221-7.7H26.189v4.761h8.252V0H22.527V-17.773h11.89v2.966H26.189v4.236h7.031Zm17.917-7.1H45.694V0H42.031V-14.807H36.66v-2.966H51.138Z" transform="translate(12091 -91)" fill="#fff"/></g></svg>