<svg xmlns="http://www.w3.org/2000/svg" width="69" height="60" viewBox="0 0 69 60"><g transform="translate(38.859 3.518)"><rect width="9.825" height="21.287" transform="translate(0 35.196)" fill="#1f65ff"/><ellipse cx="8.672" cy="8.672" rx="8.672" ry="8.672" transform="translate(11.705 0)" fill="#1f65ff"/></g><path d="M369.406,67.438a2.954,2.954,0,0,1-.425-.182l-.182-.121v-.243l.121-1.152.061-.425.364.182c.061,0,.121.061.182.061s.121.061.182.061a1.124,1.124,0,0,0,.424.121c.121.061.3.061.425.121.121,0,.243.061.364.061a.769.769,0,0,1,.364.061h.485a.455.455,0,0,0,.3-.061h0c.121,0,.182-.061.3-.121h0a.837.837,0,0,0,.243-.182h0a.838.838,0,0,0,.182-.243h0c.061-.061.061-.182.121-.243v-.3h0a.547.547,0,0,0-.061-.3h0c-.061-.061-.061-.182-.121-.243l-.182-.182a.837.837,0,0,0-.243-.182.46.46,0,0,0-.243-.121c-.061-.061-.182-.061-.3-.121h0a2.154,2.154,0,0,1-.546-.243h0c-.182-.061-.364-.182-.546-.243a1.321,1.321,0,0,1-.485-.3c-.121-.121-.3-.182-.424-.364h0l-.364-.364h0c-.121-.121-.182-.3-.3-.425h0l-.182-.546a1.679,1.679,0,0,1-.061-.546h0a2.488,2.488,0,0,1,.061-.667c.061-.182.121-.425.182-.606a2.457,2.457,0,0,1,.3-.546,3.04,3.04,0,0,1,.424-.485h0c.182-.121.3-.243.485-.364h0a2.155,2.155,0,0,1,.546-.243h.061V56.4H372.5v1.274h.121c.121,0,.182.061.3.061a2.625,2.625,0,0,1,.3.061c.061,0,.182.061.243.061h0c.061,0,.121.061.243.061l.243.061-.061.243-.121,1.092-.061.364-.364-.121c-.061,0-.121-.061-.243-.061h0c-.061,0-.121-.061-.243-.061h0c-.121,0-.243-.061-.364-.061s-.243-.061-.364-.061h-.485a.769.769,0,0,0-.364.061h0c-.121.061-.182.061-.3.121-.061.061-.182.121-.243.182a.46.46,0,0,0-.121.243h0a.454.454,0,0,0-.061.3v.3c0,.121.061.182.061.3.061.061.061.182.121.243h0l.182.182h0c.061.061.182.121.243.182h0c.061.061.182.061.243.121.121.061.182.061.3.121h0a2.154,2.154,0,0,1,.546.243c.182.061.364.182.546.243a2.126,2.126,0,0,1,.485.3,2.639,2.639,0,0,1,.424.364l.364.364h0a1.52,1.52,0,0,1,.243.425,4.168,4.168,0,0,0,.182.485h0a1.679,1.679,0,0,1,.061.546h0a2.488,2.488,0,0,1-.061.667h0c-.061.243-.121.425-.182.606a2.46,2.46,0,0,1-.3.546,1.417,1.417,0,0,1-.425.425h0l-.546.364a2.535,2.535,0,0,1-.606.243h-.061v1.334H370.8V67.559h-.121c-.182,0-.364-.061-.546-.061-.182-.061-.364-.061-.485-.121h0c.061.121-.121.061-.243.061" transform="translate(-314.84 -52.943)"/><path d="M333.764,53.128a9.764,9.764,0,1,0-9.764-9.7A9.758,9.758,0,0,0,333.764,53.128Zm0-17.284a7.581,7.581,0,1,1-7.581,7.581A7.584,7.584,0,0,1,333.764,35.844Z" transform="translate(-276.833 -33.6)" fill="#231f20"/><path d="M76.465,184.156a1.024,1.024,0,0,0,.606-.182L91.566,173.6l14.009,5.822a1.161,1.161,0,0,0,1.092-.121l11.28-8.915a1.08,1.08,0,1,0-1.334-1.7l-10.8,8.551L91.869,171.42a1.044,1.044,0,0,0-1.031.121l-14.98,10.674a1.077,1.077,0,0,0-.243,1.516A.984.984,0,0,0,76.465,184.156Z" transform="translate(-64.771 -148.368)" fill="#231f20"/><path d="M67.938,233.221H63.1v-30.93a1.072,1.072,0,0,0-1.062-1.092H52.487a1.072,1.072,0,0,0-1.062,1.092v30.93H47.887V212.965a1.072,1.072,0,0,0-1.062-1.092H37.331a1.072,1.072,0,0,0-1.062,1.092v20.256H32.731V211.389a1.072,1.072,0,0,0-1.062-1.092H22.115a1.072,1.072,0,0,0-1.062,1.092v21.833H17.515V217.635a1.072,1.072,0,0,0-1.062-1.092H6.959A1.072,1.072,0,0,0,5.9,217.635v15.586H1.062a1.092,1.092,0,0,0,0,2.183H67.938A1.072,1.072,0,0,0,69,234.313,1.112,1.112,0,0,0,67.938,233.221Zm-14.39-29.9h7.49v29.9h-7.49ZM38.333,214.057h7.49v19.164h-7.49ZM23.177,212.42h7.49v20.741h-7.49ZM8.021,218.666h7.49v14.495H8.021Z" transform="translate(0 -176.557)" fill="#231f20"/></svg>