<svg xmlns="http://www.w3.org/2000/svg" width="46" height="60" viewBox="0 0 46 60"><g transform="translate(-1419 -1419)"><g transform="translate(1419 1419)"><ellipse cx="12.887" cy="12.887" rx="12.887" ry="12.887" transform="translate(12.337 21.613)" fill="#1f65ff"/><path d="M137.115,129.067c-.211-.07-.423-.211-.634-.282l-.282-.141.07-.352.211-1.76.07-.634.563.282c.07.07.141.07.282.141.07.07.141.07.282.141l.634.211a2.056,2.056,0,0,0,.634.141c.211,0,.352.07.563.07s.352.07.563.07h.7c.141,0,.352-.07.493-.07h0c.141-.07.282-.07.423-.141h0a.7.7,0,0,0,.352-.282h0a1.536,1.536,0,0,0,.282-.352h0a1,1,0,0,0,.141-.423c0-.141.07-.282,0-.423h0c0-.141-.07-.282-.07-.423h0a1.539,1.539,0,0,0-.211-.352.55.55,0,0,0-.282-.282,1.539,1.539,0,0,0-.352-.211l-.423-.211a1,1,0,0,0-.423-.141h0a4.308,4.308,0,0,1-.845-.352h0l-.845-.423c-.282-.141-.493-.282-.775-.423a3.869,3.869,0,0,1-.634-.493h0a4.249,4.249,0,0,1-.563-.563h0l-.423-.634h0a3.433,3.433,0,0,1-.282-.775,3.159,3.159,0,0,1-.07-.775h0a4.332,4.332,0,0,1,.07-.986,4.553,4.553,0,0,1,.282-.915h0a7.685,7.685,0,0,1,.423-.775,3.028,3.028,0,0,1,.634-.7h0a7.373,7.373,0,0,1,.775-.563h0a4.308,4.308,0,0,1,.845-.352l.141-.07V112.8h2.394v1.9h.141c.141,0,.282.07.493.07.141.07.352.07.493.141a3.05,3.05,0,0,1,.352.07h0a1.19,1.19,0,0,1,.352.141l.352.141-.07.352-.211,1.62-.07.563-.493-.141a1.189,1.189,0,0,1-.352-.141h0a3.049,3.049,0,0,0-.352-.07h0a1.124,1.124,0,0,0-.563-.211c-.141,0-.352-.07-.493-.07h-.7c-.211,0-.352.07-.493.07h0l-.423.211c-.141.07-.211.211-.352.282-.07.141-.141.211-.211.352h0c-.07.141-.07.282-.141.423V119a1,1,0,0,0,.141.423,1.541,1.541,0,0,0,.211.352h0l.282.282h0c.141.07.211.141.352.211h0l.423.211a1,1,0,0,0,.423.141h0a4.307,4.307,0,0,1,.845.352,7.681,7.681,0,0,1,.775.423c.211.141.493.282.7.423s.423.352.634.493a1.9,1.9,0,0,1,.493.563h0l.423.634a2.523,2.523,0,0,1,.282.775h0a2.889,2.889,0,0,1,.07.775h0a4.649,4.649,0,0,1-.07.986h0a4.556,4.556,0,0,1-.282.915,2.908,2.908,0,0,1-.493.775c-.211.211-.423.493-.634.7h0a7.379,7.379,0,0,1-.775.563,4.891,4.891,0,0,1-.915.352l-.141.07v2.042h-2.394V129.49H139.3a3,3,0,0,1-.775-.141c-.282-.07-.493-.141-.775-.211h0a.994.994,0,0,1-.634-.07" transform="translate(-117.778 -91.449)"/><g transform="translate(0 0)"><path d="M95.338,85.6a14.156,14.156,0,1,0,14.338,14.154A14.248,14.248,0,0,0,95.338,85.6Zm0,25.774A11.656,11.656,0,1,1,107.18,99.754,11.783,11.783,0,0,1,95.338,111.374Z" transform="translate(-72.479 -69.018)" fill="#242424"/><path d="M77.89,5.771a1.26,1.26,0,0,0-1.136-.148,18.759,18.759,0,0,1-7.241,1.554C61.279,7.176,56.523.592,56.523.518A1.136,1.136,0,0,0,55.529,0a1.227,1.227,0,0,0-.994.518C54.464.592,49.779,7.1,41.544,7.176A18.759,18.759,0,0,1,34.3,5.623a1.057,1.057,0,0,0-1.136.148A1.32,1.32,0,0,0,32.6,6.88V33.958c0,9.47,7.1,21.6,22.645,25.968A2.965,2.965,0,0,0,55.6,60a.618.618,0,0,0,.355-.074C71.5,55.561,78.6,43.428,78.6,33.958V6.806A1.8,1.8,0,0,0,77.89,5.771ZM75.9,33.884c0,8.434-6.389,19.236-20.444,23.3C41.4,53.12,35.014,42.318,35.014,33.884V8.656a20.094,20.094,0,0,0,6.46,1.11h0A19.065,19.065,0,0,0,55.458,3.329,19.211,19.211,0,0,0,69.443,9.766a20.094,20.094,0,0,0,6.46-1.11V33.884Z" transform="translate(-32.6 0)" fill="#242424"/></g></g></g></svg>