<svg xmlns="http://www.w3.org/2000/svg" width="20" height="20" viewBox="0 0 20 20"><g transform="translate(0)"><path d="M10,0A10,10,0,1,0,20,10,10,10,0,0,0,10,0Zm6.047,7.333q.007.177.007.355a8.606,8.606,0,0,1-8.69,8.69,8.656,8.656,0,0,1-4.682-1.372.074.074,0,0,1-.03-.087.075.075,0,0,1,.078-.048,6.046,6.046,0,0,0,.713.042A5.964,5.964,0,0,0,7,13.753a3.1,3.1,0,0,1-2.693-2.144.074.074,0,0,1,.084-.1,2.977,2.977,0,0,0,1.031.015A3.112,3.112,0,0,1,3.241,8.566v-.04a.074.074,0,0,1,.037-.063.073.073,0,0,1,.073,0,2.965,2.965,0,0,0,1.083.35,3.105,3.105,0,0,1-.748-3.987.074.074,0,0,1,.058-.036.073.073,0,0,1,.063.027A8.554,8.554,0,0,0,9.9,7.948a3.139,3.139,0,0,1-.06-.611,3.1,3.1,0,0,1,5.338-2.153,5.981,5.981,0,0,0,1.86-.718.074.074,0,0,1,.108.086,3.1,3.1,0,0,1-1.091,1.532,5.964,5.964,0,0,0,1.4-.424.074.074,0,0,1,.091.109A6.183,6.183,0,0,1,16.047,7.333Z" transform="translate(0)" fill="#7a92c8"/></g></svg>